<svg width="83" height="16" viewBox="0 0 83 16" fill="none" xmlns="http://www.w3.org/2000/svg">
<path d="M34.62 12.14C34.0507 12.14 33.5233 11.9953 33.038 11.706C32.5527 11.4073 32.1747 11.034 31.904 10.586V12H31.05V1.78H32.002V6.232C32.3287 5.73733 32.7207 5.34067 33.178 5.042C33.6353 4.734 34.1673 4.58 34.774 4.58C35.2873 4.58 35.7447 4.68733 36.146 4.902C36.5567 5.11667 36.9067 5.406 37.196 5.77C37.4853 6.12467 37.7047 6.53067 37.854 6.988C38.0033 7.436 38.078 7.898 38.078 8.374C38.078 8.88733 37.9893 9.368 37.812 9.816C37.644 10.264 37.4013 10.6653 37.084 11.02C36.7667 11.3653 36.398 11.6407 35.978 11.846C35.5673 12.042 35.1147 12.14 34.62 12.14ZM34.396 11.3C34.788 11.3 35.152 11.2207 35.488 11.062C35.824 10.9033 36.1133 10.684 36.356 10.404C36.5987 10.124 36.7853 9.81133 36.916 9.466C37.0467 9.11133 37.112 8.74733 37.112 8.374C37.112 7.86067 37 7.38 36.776 6.932C36.5613 6.47467 36.258 6.11067 35.866 5.84C35.4833 5.56 35.0307 5.42 34.508 5.42C34.1347 5.42 33.7847 5.504 33.458 5.672C33.1407 5.84 32.856 6.064 32.604 6.344C32.3613 6.61467 32.1607 6.91333 32.002 7.24V9.508C32.0393 9.76 32.1373 9.998 32.296 10.222C32.4547 10.4367 32.6507 10.6233 32.884 10.782C33.1267 10.9407 33.3787 11.0667 33.64 11.16C33.9013 11.2533 34.1533 11.3 34.396 11.3ZM42.7986 12.14C42.276 12.14 41.7906 12.042 41.3426 11.846C40.904 11.6407 40.5213 11.3653 40.1946 11.02C39.8773 10.6653 39.63 10.264 39.4526 9.816C39.2753 9.35867 39.1866 8.878 39.1866 8.374C39.1866 7.85133 39.2753 7.366 39.4526 6.918C39.63 6.46067 39.882 6.05933 40.2086 5.714C40.5353 5.35933 40.918 5.084 41.3566 4.888C41.8046 4.68267 42.29 4.58 42.8126 4.58C43.3353 4.58 43.816 4.68267 44.2546 4.888C44.6933 5.084 45.076 5.35933 45.4026 5.714C45.7293 6.05933 45.9813 6.46067 46.1586 6.918C46.336 7.366 46.4246 7.85133 46.4246 8.374C46.4246 8.878 46.336 9.35867 46.1586 9.816C45.9813 10.264 45.7293 10.6653 45.4026 11.02C45.0853 11.3653 44.7026 11.6407 44.2546 11.846C43.816 12.042 43.3306 12.14 42.7986 12.14ZM40.1526 8.388C40.1526 8.92933 40.2693 9.424 40.5026 9.872C40.7453 10.3107 41.0673 10.6607 41.4686 10.922C41.87 11.174 42.3133 11.3 42.7986 11.3C43.284 11.3 43.7273 11.1693 44.1286 10.908C44.53 10.6467 44.852 10.292 45.0946 9.844C45.3373 9.38667 45.4586 8.892 45.4586 8.36C45.4586 7.81867 45.3373 7.324 45.0946 6.876C44.852 6.428 44.53 6.07333 44.1286 5.812C43.7273 5.55067 43.284 5.42 42.7986 5.42C42.3133 5.42 41.87 5.55533 41.4686 5.826C41.0766 6.09667 40.7593 6.456 40.5166 6.904C40.274 7.34267 40.1526 7.83733 40.1526 8.388ZM51.1248 12.14C50.6021 12.14 50.1168 12.042 49.6688 11.846C49.2301 11.6407 48.8475 11.3653 48.5208 11.02C48.2035 10.6653 47.9561 10.264 47.7788 9.816C47.6015 9.35867 47.5128 8.878 47.5128 8.374C47.5128 7.85133 47.6015 7.366 47.7788 6.918C47.9561 6.46067 48.2081 6.05933 48.5348 5.714C48.8615 5.35933 49.2441 5.084 49.6828 4.888C50.1308 4.68267 50.6161 4.58 51.1388 4.58C51.6615 4.58 52.1421 4.68267 52.5808 4.888C53.0195 5.084 53.4021 5.35933 53.7288 5.714C54.0555 6.05933 54.3075 6.46067 54.4848 6.918C54.6621 7.366 54.7508 7.85133 54.7508 8.374C54.7508 8.878 54.6621 9.35867 54.4848 9.816C54.3075 10.264 54.0555 10.6653 53.7288 11.02C53.4115 11.3653 53.0288 11.6407 52.5808 11.846C52.1421 12.042 51.6568 12.14 51.1248 12.14ZM48.4788 8.388C48.4788 8.92933 48.5955 9.424 48.8288 9.872C49.0715 10.3107 49.3935 10.6607 49.7948 10.922C50.1961 11.174 50.6395 11.3 51.1248 11.3C51.6101 11.3 52.0535 11.1693 52.4548 10.908C52.8561 10.6467 53.1781 10.292 53.4208 9.844C53.6635 9.38667 53.7848 8.892 53.7848 8.36C53.7848 7.81867 53.6635 7.324 53.4208 6.876C53.1781 6.428 52.8561 6.07333 52.4548 5.812C52.0535 5.55067 51.6101 5.42 51.1248 5.42C50.6395 5.42 50.1961 5.55533 49.7948 5.826C49.4028 6.09667 49.0855 6.456 48.8428 6.904C48.6001 7.34267 48.4788 7.83733 48.4788 8.388ZM61.551 12L58.849 8.262L57.295 9.718V12H56.343V1.78H57.295V8.696L61.425 4.72H62.475L59.493 7.702L62.587 12H61.551ZM63.7668 12V4.706H64.7188V12H63.7668ZM63.7668 3.18V1.78H64.7188V3.18H63.7668ZM72.9476 12H71.9956V7.926C71.9956 7.06733 71.8696 6.442 71.6176 6.05C71.3656 5.64867 70.969 5.448 70.4276 5.448C70.0543 5.448 69.6856 5.54133 69.3216 5.728C68.9576 5.90533 68.6356 6.15267 68.3556 6.47C68.085 6.778 67.889 7.13267 67.7676 7.534V12H66.8156V4.706H67.6836V6.358C67.8796 6.00333 68.1363 5.69533 68.4536 5.434C68.771 5.16333 69.1303 4.95333 69.5316 4.804C69.933 4.65467 70.3483 4.58 70.7776 4.58C71.179 4.58 71.5196 4.65467 71.7996 4.804C72.0796 4.95333 72.3036 5.168 72.4716 5.448C72.6396 5.71867 72.761 6.05 72.8356 6.442C72.9103 6.82467 72.9476 7.254 72.9476 7.73V12ZM77.9037 12.098C77.4091 12.098 76.9517 11.9953 76.5317 11.79C76.1117 11.5847 75.7477 11.3093 75.4397 10.964C75.1411 10.6093 74.9077 10.208 74.7397 9.76C74.5717 9.312 74.4877 8.85 74.4877 8.374C74.4877 7.86067 74.5671 7.38 74.7257 6.932C74.8937 6.47467 75.1271 6.06867 75.4257 5.714C75.7337 5.35933 76.0931 5.084 76.5037 4.888C76.9144 4.68267 77.3717 4.58 77.8757 4.58C78.5011 4.58 79.0424 4.73867 79.4997 5.056C79.9664 5.37333 80.3584 5.76533 80.6757 6.232V4.706H81.5297V12.028C81.5297 12.7 81.3664 13.2647 81.0397 13.722C80.7224 14.1887 80.2884 14.5387 79.7377 14.772C79.1964 15.0053 78.6037 15.122 77.9597 15.122C77.1291 15.122 76.4571 14.9727 75.9437 14.674C75.4304 14.3753 75.0104 13.974 74.6837 13.47L75.2717 13.008C75.5611 13.4653 75.9437 13.806 76.4197 14.03C76.9051 14.254 77.4184 14.366 77.9597 14.366C78.4357 14.366 78.8697 14.2773 79.2617 14.1C79.6631 13.932 79.9804 13.6753 80.2137 13.33C80.4564 12.9847 80.5777 12.5507 80.5777 12.028V10.586C80.2977 11.0433 79.9151 11.412 79.4297 11.692C78.9444 11.9627 78.4357 12.098 77.9037 12.098ZM78.1697 11.3C78.4591 11.3 78.7344 11.2487 78.9957 11.146C79.2664 11.0433 79.5137 10.908 79.7377 10.74C79.9617 10.5627 80.1484 10.3667 80.2977 10.152C80.4471 9.93733 80.5404 9.718 80.5777 9.494V7.24C80.4377 6.88533 80.2371 6.57267 79.9757 6.302C79.7144 6.022 79.4157 5.80733 79.0797 5.658C78.7531 5.49933 78.4124 5.42 78.0577 5.42C77.6471 5.42 77.2784 5.50867 76.9517 5.686C76.6344 5.854 76.3637 6.08267 76.1397 6.372C75.9251 6.652 75.7571 6.96933 75.6357 7.324C75.5144 7.67867 75.4537 8.03333 75.4537 8.388C75.4537 8.78 75.5237 9.15333 75.6637 9.508C75.8037 9.85333 75.9951 10.166 76.2377 10.446C76.4897 10.7167 76.7791 10.9267 77.1057 11.076C77.4417 11.2253 77.7964 11.3 78.1697 11.3Z" fill="black"/>
<path d="M0 7.05945L10.0411 10.4675V11.3195L0 14.6666V13.6321L8.18167 10.9543L8.4296 10.8935L8.18167 10.8326L0 8.09403V7.05945Z" fill="#1A1A1A"/>
<path d="M5.97461 0.486847L10.6204 9.868L10.0068 10.4705L0.496093 5.86594L1.24117 5.13439L8.95492 8.92127L9.17407 9.05037L9.04258 8.83521L5.22953 1.2184L5.97461 0.486847Z" fill="#1A1A1A"/>
<path d="M14.9375 0L11.4665 9.85893H10.5987L7.18971 0L8.2434 0L10.9706 8.0332L11.0326 8.27663L11.0946 8.0332L13.8838 0L14.9375 0Z" fill="#1A1A1A"/>
<path d="M22 7.05945L11.9589 10.4675V11.3195L22 14.6666V13.6321L13.8183 10.9543L13.5704 10.8935L13.8183 10.8326L22 8.09403V7.05945Z" fill="#1A1A1A"/>
<path d="M16.0254 0.486847L11.3796 9.868L11.9932 10.4705L21.5039 5.86594L20.7588 5.13439L13.0451 8.92127L12.8259 9.05037L12.9574 8.83521L16.7705 1.2184L16.0254 0.486847Z" fill="#1A1A1A"/>
</svg>
